HIERARCHY
ROOT Hips
{
	OFFSET 0.000000 0.000000 0.000000
	CHANNELS 6 Xposition Yposition Zposition Zrotation Yrotation Xrotation 
	JOINT LHipJoint
	{
		OFFSET 0.000000 0.000000 0.000000
		CHANNELS 3 Zrotation Yrotation Xrotation
		JOINT LeftUpLeg
		{
			OFFSET 1.363060 -1.794630 0.839290
			CHANNELS 3 Zrotation Yrotation Xrotation
			JOINT LeftLeg
			{
				OFFSET 2.448110 -6.726130 0.000000
				CHANNELS 3 Zrotation Yrotation Xrotation
				JOINT LeftFoot
				{
					OFFSET 2.562200 -7.039590 0.000000
					CHANNELS 3 Zrotation Yrotation Xrotation
					JOINT LeftToeBase
					{
						OFFSET 0.157640 -0.433110 2.322550
						CHANNELS 3 Zrotation Yrotation Xrotation
						End Site
						{
							OFFSET 0.000000 0.000000 0.000000
						}
					}
				}
			}
		}
	}
	JOINT RHipJoint
	{
		OFFSET 0.000000 0.000000 0.000000
		CHANNELS 3 Zrotation Yrotation Xrotation
		JOINT RightUpLeg
		{
			OFFSET -1.305520 -1.794630 0.839290
			CHANNELS 3 Zrotation Yrotation Xrotation
			JOINT RightLeg
			{
				OFFSET -2.542530 -6.985550 0.000000
				CHANNELS 3 Zrotation Yrotation Xrotation
				JOINT RightFoot
				{
					OFFSET -2.568260 -7.056230 0.000000
					CHANNELS 3 Zrotation Yrotation Xrotation
					JOINT RightToeBase
					{
						OFFSET -0.164730 -0.452590 2.363150
						CHANNELS 3 Zrotation Yrotation Xrotation
						End Site
						{
							OFFSET 0.000000 0.000000 0.000000
						}
					}
				}
			}
		}
	}
	JOINT LowerBack
	{
		OFFSET 0.000000 0.000000 0.000000
		CHANNELS 3 Zrotation Yrotation Xrotation
		JOINT Spine
		{
			OFFSET 0.028270 2.035590 -0.193380
			CHANNELS 3 Zrotation Yrotation Xrotation
			JOINT Spine1
			{
				OFFSET 0.056720 2.048850 -0.042750
				CHANNELS 3 Zrotation Yrotation Xrotation
				JOINT Neck
				{
					OFFSET 0.000000 0.000000 0.000000
					CHANNELS 3 Zrotation Yrotation Xrotation
					JOINT Neck1
					{
						OFFSET -0.054170 1.746240 0.172020
						CHANNELS 3 Zrotation Yrotation Xrotation
						JOINT Head
						{
							OFFSET 0.104070 1.761360 -0.123970
							CHANNELS 3 Zrotation Yrotation Xrotation
							End Site
							{
								OFFSET 0.000000 0.000000 0.000000
							}
						}
					}
				}
				JOINT LeftShoulder
				{
					OFFSET 0.000000 0.000000 0.000000
					CHANNELS 3 Zrotation Yrotation Xrotation
					JOINT LeftArm
					{
						OFFSET 3.362410 1.200890 -0.311210
						CHANNELS 3 Zrotation Yrotation Xrotation
						JOINT LeftForeArm
						{
							OFFSET 4.983000 -0.000000 -0.000000
							CHANNELS 3 Zrotation Yrotation Xrotation
							JOINT LeftHand
							{
								OFFSET 3.483560 -0.000000 -0.000000
								CHANNELS 3 Zrotation Yrotation Xrotation
								JOINT LeftFingerBase
								{
									OFFSET 0.000000 0.000000 0.000000
									CHANNELS 3 Zrotation Yrotation Xrotation
									JOINT LeftHandIndex1
									{
										OFFSET 0.715260 -0.000000 -0.000000
										CHANNELS 3 Zrotation Yrotation Xrotation
										End Site
										{
											OFFSET 0.000000 0.000000 0.000000
										}
									}
								}
								JOINT LThumb
								{
									OFFSET 0.000000 0.000000 0.000000
									CHANNELS 3 Zrotation Yrotation Xrotation
									End Site
									{
										OFFSET 0.000000 0.000000 0.000000
									}
								}
							}
						}
					}
				}
				JOINT RightShoulder
				{
					OFFSET 0.000000 0.000000 0.000000
					CHANNELS 3 Zrotation Yrotation Xrotation
					JOINT RightArm
					{
						OFFSET -3.136600 1.374050 -0.404650
						CHANNELS 3 Zrotation Yrotation Xrotation
						JOINT RightForeArm
						{
							OFFSET -5.241900 -0.000000 -0.000000
							CHANNELS 3 Zrotation Yrotation Xrotation
							JOINT RightHand
							{
								OFFSET -3.444170 -0.000000 -0.000000
								CHANNELS 3 Zrotation Yrotation Xrotation
								JOINT RightFingerBase
								{
									OFFSET 0.000000 0.000000 0.000000
									CHANNELS 3 Zrotation Yrotation Xrotation
									JOINT RightHandIndex1
									{
										OFFSET -0.622530 -0.000000 -0.000000
										CHANNELS 3 Zrotation Yrotation Xrotation
										End Site
										{
											OFFSET 0.000000 0.000000 0.000000
										}
									}
								}
								JOINT RThumb
								{
									OFFSET 0.000000 0.000000 0.000000
									CHANNELS 3 Zrotation Yrotation Xrotation
									End Site
									{
										OFFSET 0.000000 0.000000 0.000000
									}
								}
							}
						}
					}
				}
			}
		}
	}
}
MOTION
Frames: 10
Frame Time: 0.008333
1.832446 17.720714 -10.195967 7.729813 -1.912097 -0.545716 -1.801841 1.748687 3.154337 -28.246448 -2.547202 1.324678 -0.053058 6.628355 21.788086 0.116299 1.914867 -2.558396 0.015165 -0.745111 -2.048077 -0.484815 -0.953752 -0.172034 9.076887 10.890266 -32.282149 -2.172146 -11.550980 31.239314 2.639383 -12.101195 4.659452 -0.219196 3.013466 -8.316321 -5.958561 -1.005805 5.629203 0.516409 -1.909920 -2.212458 4.867629 -0.825286 -2.906567 -8.038505 -1.402789 -10.919993 2.399209 -0.637098 14.016391 2.479752 -1.036662 9.891330 -7.831841 2.568518 -2.473884 -79.859192 -2.474831 22.620266 11.515616 -22.026499 -3.192629 -1.662124 -3.428943 7.673648 16.433488 19.418299 7.087016 -7.125000 0.000000 0.000000 -11.979616 53.631545 -2.610290 6.196685 -2.437198 -2.674518 81.453323 -8.922265 10.303626 -12.303159 19.843428 -3.172232 1.138301 -1.226194 9.288421 -13.791326 15.405068 -4.351700 7.125000 0.000000 0.000000 8.442668 -13.190071 6.364471
1.821355 17.714614 -10.075730 7.691418 -1.614951 -0.428358 -1.825267 1.784516 3.210678 -28.102467 -2.394357 1.787937 -0.116616 6.467025 21.354319 0.102765 1.924212 -2.234711 0.029095 -1.062534 -2.921232 -0.414632 -0.938766 -0.206709 8.860481 10.931813 -32.099020 -1.804161 -11.010555 29.468459 2.772956 -12.534796 4.679137 -0.229389 3.081998 -8.507163 -5.929473 -1.107187 5.610540 0.530896 -2.036021 -2.227359 4.893832 -0.893817 -2.950031 -8.035185 -1.440960 -10.849719 2.412338 -0.697562 13.876012 2.481257 -1.055785 9.809790 -7.807628 2.567429 -2.478220 -79.754794 -2.624020 22.924467 11.661657 -22.255605 -3.280449 -1.751825 -3.280998 7.233115 17.243882 18.114272 7.042849 -7.125000 0.000000 0.000000 -10.450649 52.337636 -1.946469 6.178768 -2.449513 -2.680874 81.545472 -9.268378 10.133991 -12.309028 19.876303 -3.180005 1.136653 -1.224029 9.206431 -13.722957 15.443907 -4.340100 7.125000 0.000000 0.000000 8.491203 -13.157212 6.407813
1.811195 17.709622 -9.954605 7.707423 -1.315954 -0.322781 -1.842561 1.819826 3.265373 -28.019875 -2.231930 2.281597 -0.175911 6.308581 20.935189 0.123852 1.834195 -2.033995 0.036964 -1.241339 -3.413082 -0.345534 -0.926181 -0.240010 8.574037 10.962379 -31.886391 -1.454246 -10.462111 27.705911 2.897850 -12.938016 4.721510 -0.252150 3.224449 -8.904779 -5.947278 -1.214382 5.585174 0.537075 -2.173169 -2.241207 4.917841 -0.968555 -2.975802 -8.026763 -1.458324 -10.823156 2.441801 -0.729343 13.793503 2.492449 -1.062318 9.765871 -7.793081 2.564139 -2.484910 -79.633040 -2.789737 23.185451 11.791150 -22.455396 -3.353286 -1.833396 -3.175431 6.880006 17.973876 17.184520 7.065814 -7.125000 0.000000 0.000000 -9.209672 51.438005 -1.477195 6.174504 -2.461160 -2.682419 81.631567 -9.529204 9.814228 -12.229585 19.774052 -3.143265 1.135228 -1.229816 9.254781 -13.674390 15.452393 -4.329076 7.125000 0.000000 0.000000 8.523500 -13.148082 6.434362
1.802221 17.706043 -9.832350 7.792761 -1.014596 -0.232220 -1.852040 1.854475 3.317970 -28.015524 -2.057290 2.814004 -0.229775 6.153818 20.534715 0.189065 1.617542 -1.990003 0.037110 -1.243474 -3.418955 -0.277820 -0.916658 -0.271560 8.198330 10.978950 -31.636162 -1.127361 -9.903447 25.953951 3.011682 -13.302515 4.792799 -0.290930 3.461108 -9.565930 -6.024848 -1.328986 5.551265 0.532667 -2.324396 -2.253715 4.939054 -1.051205 -2.979024 -8.011840 -1.449168 -10.852305 2.492081 -0.724565 13.784749 2.515989 -1.052805 9.769900 -7.790853 2.558047 -2.494602 -79.489167 -2.976521 23.391357 11.899552 -22.617822 -3.407025 -1.904608 -3.123878 6.638320 18.601401 16.731786 7.174339 -7.125000 0.000000 0.000000 -8.335740 51.040887 -1.255872 6.187640 -2.471959 -2.677832 81.709944 -9.681333 9.303125 -12.041414 19.499579 -3.049790 1.134085 -1.245739 9.469249 -13.651060 15.422192 -4.318787 7.125000 0.000000 0.000000 8.535100 -13.169195 6.439507
1.792425 17.701411 -9.710937 7.860051 -0.749233 -0.145477 -1.862143 1.890471 3.370822 -27.984299 -1.884077 3.343556 -0.281622 6.002733 20.144709 0.274958 1.344559 -2.037288 0.031714 -1.117715 -3.072993 -0.212432 -0.909250 -0.302713 7.847615 11.031509 -31.380236 -0.817757 -9.341804 24.219612 3.137627 -13.694246 4.816630 -0.299591 3.513612 -9.712650 -6.100359 -1.436342 5.530974 0.536194 -2.466431 -2.264752 4.993001 -1.129388 -2.980184 -8.024448 -1.433049 -10.897325 2.542380 -0.701311 13.783151 2.545770 -1.037548 9.780353 -7.789567 2.550648 -2.502840 -79.378920 -3.179161 23.547451 12.001218 -22.765987 -3.457261 -1.924161 -3.132082 6.472680 18.837324 16.788735 7.296433 -7.125000 0.000000 0.000000 -8.100490 51.148628 -1.245842 6.208963 -2.480251 -2.671405 81.760168 -9.790264 8.745129 -11.834323 19.186488 -2.945959 1.139094 -1.236125 9.785209 -13.679585 15.140339 -4.252144 7.125000 0.000000 0.000000 8.506106 -13.470067 6.363390
1.781284 17.695059 -9.590901 7.897809 -0.542768 -0.064985 -1.873265 1.928673 3.424091 -27.909096 -1.713198 3.868435 -0.330169 5.857667 19.771834 0.394692 0.979400 -2.233935 0.017250 -0.782674 -2.151303 -0.150848 -0.905305 -0.333218 7.537799 11.142957 -31.114987 -0.536432 -8.775287 22.514110 3.283394 -14.130539 4.762802 -0.258967 3.264770 -9.017572 -6.172500 -1.531839 5.532969 0.552705 -2.593426 -2.273380 5.100513 -1.200262 -2.977973 -8.082106 -1.405534 -10.968316 2.592712 -0.647822 13.793263 2.585763 -1.012892 9.801321 -7.789823 2.541112 -2.508699 -79.323695 -3.407749 23.622038 12.091860 -22.890815 -3.501766 -1.859182 -3.238073 6.431480 18.432444 17.679711 7.440729 -7.125000 0.000000 0.000000 -8.910354 52.082500 -1.581563 6.243682 -2.484442 -2.661965 81.764322 -9.828506 8.110398 -11.596272 18.810207 -2.825181 1.154170 -1.184722 10.267249 -13.792965 14.446691 -4.093287 7.125000 0.000000 0.000000 8.410685 -14.228727 6.154298
1.769113 17.688498 -9.470784 7.905565 -0.325043 0.035843 -1.885854 1.967634 3.475677 -27.788602 -1.576442 4.372346 -0.381235 5.709908 19.388066 0.495127 0.662143 -2.292930 0.010512 -0.634445 -1.743464 -0.092405 -0.902779 -0.362856 7.248957 11.275759 -30.858479 -0.270452 -8.214847 20.846972 3.427758 -14.541988 4.610956 -0.210261 2.924496 -8.070383 -6.227791 -1.624509 5.502845 0.574212 -2.713209 -2.278105 5.212989 -1.269123 -2.946120 -8.117797 -1.396310 -11.060259 2.616380 -0.620973 13.795118 2.603587 -1.000264 9.822659 -7.781389 2.531456 -2.513414 -79.275509 -3.643013 23.741587 12.199786 -23.044753 -3.559944 -1.799152 -3.313867 6.351021 18.070435 18.308678 7.505669 -7.125000 0.000000 0.000000 -9.569974 52.724352 -1.832679 6.274607 -2.491375 -2.654666 81.777016 -9.871994 7.504274 -11.402469 18.504113 -2.728007 1.161758 -1.128790 10.685882 -13.832835 13.774042 -3.916395 7.125000 0.000000 0.000000 8.373814 -14.974413 5.990118
1.754744 17.681490 -9.350496 7.849266 -0.083278 0.180090 -1.901572 2.008214 3.523671 -27.571406 -1.512543 4.831485 -0.437682 5.556398 18.981042 0.554357 0.447165 -2.058018 0.020267 -0.885082 -2.432766 -0.040666 -0.903286 -0.390641 7.004900 11.454158 -30.620635 -0.037237 -7.667383 19.261749 3.569123 -14.900392 4.249826 -0.144301 2.389003 -6.584904 -6.247105 -1.711141 5.404145 0.606385 -2.817592 -2.274494 5.336063 -1.333686 -2.850978 -8.106586 -1.426136 -11.196936 2.583118 -0.651005 13.779344 2.574078 -1.013321 9.844792 -7.754402 2.521542 -2.515687 -79.242351 -3.892528 23.957136 12.344612 -23.260843 -3.647315 -1.749689 -3.325187 6.186739 17.799961 18.378221 7.401172 -7.125000 0.000000 0.000000 -9.908801 52.742698 -1.903152 6.297430 -2.504160 -2.651936 81.807943 -9.926681 6.959228 -11.303142 18.347880 -2.681234 1.153358 -1.063189 10.969134 -13.715754 13.146230 -3.700994 7.125000 0.000000 0.000000 8.461954 -15.692400 5.921828
1.739816 17.675343 -9.229387 7.796350 0.179332 0.339222 -1.916647 2.048579 3.570128 -27.352036 -1.481429 5.278687 -0.492715 5.408269 18.587770 0.623339 0.201493 -1.832057 0.033964 -1.164126 -3.200746 0.011147 -0.905822 -0.417374 6.743452 11.647078 -30.370189 0.183196 -7.123081 17.691875 3.719330 -15.296411 3.947958 -0.090756 1.937699 -5.333700 -6.271154 -1.803434 5.282495 0.638059 -2.928936 -2.272668 5.456329 -1.401540 -2.750484 -8.092810 -1.460463 -11.328224 2.550555 -0.688354 13.759808 2.543803 -1.029264 9.863635 -7.726073 2.513904 -2.518110 -79.204044 -4.138450 24.174979 12.488862 -23.477090 -3.735124 -1.724250 -3.307246 6.017121 17.699220 18.202913 7.287374 -7.125000 0.000000 0.000000 -9.955812 52.517392 -1.865400 6.315848 -2.518612 -2.650916 81.846264 -10.008531 6.440336 -11.220286 18.222412 -2.643532 1.142335 -1.010577 11.184153 -13.576653 12.654784 -3.519886 7.125000 0.000000 0.000000 8.567003 -16.258164 5.892702
1.723280 17.671663 -9.105922 7.753131 0.501700 0.541025 -1.929875 2.088331 3.612178 -27.126436 -1.544300 5.691668 -0.543698 5.275564 18.233922 0.720274 -0.132165 -1.631757 0.058960 -1.524600 -4.194269 0.063169 -0.914178 -0.441094 6.432153 11.881626 -30.083620 0.366986 -6.587845 16.166003 3.894886 -15.800262 3.815971 -0.072797 1.727734 -4.754089 -6.308780 -1.911957 5.095053 0.668300 -3.060234 -2.275953 5.568542 -1.478828 -2.634645 -8.071679 -1.507691 -11.444064 2.519993 -0.746677 13.729487 2.511332 -1.053483 9.873051 -7.693901 2.512788 -2.520965 -79.150978 -4.374067 24.399398 12.631457 -23.693790 -3.824187 -1.767682 -3.205419 5.832207 18.085049 17.325696 7.146912 -7.125000 0.000000 0.000000 -9.166284 51.593615 -1.517400 6.321638 -2.537847 -2.654797 81.905781 -10.168242 5.996421 -11.184649 18.185136 -2.631837 1.123794 -0.995197 11.203565 -13.374431 12.554256 -3.437084 7.125000 0.000000 0.000000 8.720521 -16.387560 5.975844
